<?xml version="1.0" standalone="no"?>
<!DOCTYPE svg PUBLIC "-//W3C//DTD SVG 20010904//EN"
 "http://www.w3.org/TR/2001/REC-SVG-20010904/DTD/svg10.dtd">
<svg version="1.0" xmlns="http://www.w3.org/2000/svg"
 width="512.000000pt" height="512.000000pt" viewBox="0 0 512.000000 512.000000"
 preserveAspectRatio="xMidYMid meet">
<metadata>
Created by potrace 1.11, written by Peter Selinger 2001-2013
</metadata>
<g transform="translate(0.000000,512.000000) scale(0.100000,-0.100000)"
fill="#000000" stroke="none">
<path d="M2078 5115 c-2 -1 -35 -5 -75 -9 -40 -3 -91 -10 -115 -15 -24 -6 -54
-12 -68 -15 -83 -15 -188 -71 -239 -125 -71 -77 -101 -179 -96 -326 8 -251
135 -562 337 -827 l59 -78 -77 0 c-91 0 -135 -18 -166 -68 -24 -39 -31 -118
-15 -167 13 -41 55 -84 91 -93 l30 -8 -59 -39 c-183 -121 -346 -267 -545 -490
-147 -164 -347 -469 -473 -721 -106 -211 -238 -572 -262 -714 -3 -19 -8 -43
-11 -52 -6 -20 -12 -51 -19 -98 -3 -20 -7 -45 -9 -57 -18 -90 -23 -316 -10
-417 48 -384 286 -612 739 -711 61 -13 133 -27 160 -30 28 -3 61 -8 75 -10 25
-4 107 -12 210 -20 328 -25 2000 -25 2165 0 17 3 50 7 75 9 83 8 240 36 315
56 213 57 342 125 461 244 68 68 89 97 127 176 52 109 75 193 86 317 47 539
-225 1293 -685 1893 -189 246 -415 464 -638 614 -39 25 -63 46 -54 46 26 0 97
59 111 93 20 47 14 142 -10 175 -42 56 -78 72 -170 72 l-83 0 48 63 c256 329
399 754 337 1002 -50 201 -193 290 -525 325 -66 7 -1014 12 -1022 5z"/>
</g>
</svg>
